<?xml version="1.0" encoding="UTF-8" standalone="no"?>
<!-- Created with Inkscape (http://www.inkscape.org/) -->

<svg
   xmlns:dc="http://purl.org/dc/elements/1.1/"
   xmlns:cc="http://creativecommons.org/ns#"
   xmlns:rdf="http://www.w3.org/1999/02/22-rdf-syntax-ns#"
   xmlns:svg="http://www.w3.org/2000/svg"
   xmlns="http://www.w3.org/2000/svg"
   xmlns:sodipodi="http://sodipodi.sourceforge.net/DTD/sodipodi-0.dtd"
   xmlns:inkscape="http://www.inkscape.org/namespaces/inkscape"
   width="73.597748mm"
   height="10.50864mm"
   viewBox="0 0 73.597748 10.50864"
   version="1.1"
   id="svg4675"
   inkscape:version="0.92pre2 r"
   sodipodi:docname="ecclesi.svg">
  <defs
     id="defs4669" />
  <sodipodi:namedview
     id="base"
     pagecolor="#ffffff"
     bordercolor="#666666"
     borderopacity="1.0"
     inkscape:pageopacity="0.0"
     inkscape:pageshadow="2"
     inkscape:zoom="1.4"
     inkscape:cx="126.95904"
     inkscape:cy="-15.171811"
     inkscape:document-units="mm"
     inkscape:current-layer="layer1"
     showgrid="false"
     fit-margin-top="0"
     fit-margin-left="0"
     fit-margin-right="0"
     fit-margin-bottom="0"
     inkscape:window-width="1366"
     inkscape:window-height="707"
     inkscape:window-x="0"
     inkscape:window-y="0"
     inkscape:window-maximized="1" />
  <metadata
     id="metadata4672">
    <rdf:RDF>
      <cc:Work
         rdf:about="">
        <dc:format>image/svg+xml</dc:format>
        <dc:type
           rdf:resource="http://purl.org/dc/dcmitype/StillImage" />
        <dc:title></dc:title>
      </cc:Work>
    </rdf:RDF>
  </metadata>
  <g
     inkscape:label="Capa 1"
     inkscape:groupmode="layer"
     id="layer1"
     transform="translate(55.697684,-105.78141)">
    <path
       inkscape:connector-curvature="0"
       d="m -54.513833,110.89656 h 5.207816 v 0.76688 h -5.207816 z m 4.271348,-5.11513 a 5.4551449,5.2542869 0 0 0 -5.455199,5.25442 5.4551449,5.2542869 0 0 0 5.455199,5.25411 5.4551449,5.2542869 0 0 0 0.936501,-0.0836 v -0.76761 a 5.0071387,4.381644 0 0 1 -0.464351,0.0246 5.0071387,4.381644 0 0 1 -5.007003,-4.3818 5.0071387,4.381644 0 0 1 5.007003,-4.38151 5.0071387,4.381644 0 0 1 0.464351,0.0205 v -0.85353 a 5.4551449,5.2542869 0 0 0 -0.936501,-0.0856 z"
       style="color:#000000;clip-rule:nonzero;display:inline;overflow:visible;visibility:visible;opacity:1;isolation:auto;mix-blend-mode:normal;color-interpolation:sRGB;color-interpolation-filters:linearRGB;solid-color:#000000;solid-opacity:1;fill:#4a148c;fill-opacity:1;fill-rule:nonzero;stroke:none;stroke-width:0.27186841;stroke-linecap:round;stroke-linejoin:round;stroke-miterlimit:4;stroke-dasharray:none;stroke-dashoffset:0;stroke-opacity:1;color-rendering:auto;image-rendering:auto;shape-rendering:auto;text-rendering:auto;enable-background:accumulate"
       id="rect4243-7-8-5" />
    <path
       inkscape:connector-curvature="0"
       id="path4219-4-0-0-2"
       d="m -40.956979,105.78143 a 5.4551449,5.2542869 0 0 0 -5.455215,5.25442 5.4551449,5.2542869 0 0 0 5.455215,5.25411 5.4551449,5.2542869 0 0 0 0.936484,-0.0836 v -0.76761 a 5.0071387,4.381644 0 0 1 -0.46435,0.0246 5.0071387,4.381644 0 0 1 -5.007004,-4.3818 5.0071387,4.381644 0 0 1 5.007004,-4.38151 5.0071387,4.381644 0 0 1 0.46435,0.0205 v -0.85353 a 5.4551449,5.2542869 0 0 0 -0.936484,-0.0856 z"
       style="color:#000000;clip-rule:nonzero;display:inline;overflow:visible;visibility:visible;opacity:1;isolation:auto;mix-blend-mode:normal;color-interpolation:sRGB;color-interpolation-filters:linearRGB;solid-color:#000000;solid-opacity:1;fill:#4a148c;fill-opacity:1;fill-rule:nonzero;stroke:none;stroke-width:0.27186841;stroke-linecap:round;stroke-linejoin:round;stroke-miterlimit:4;stroke-dasharray:none;stroke-dashoffset:0;stroke-opacity:1;color-rendering:auto;image-rendering:auto;shape-rendering:auto;text-rendering:auto;enable-background:accumulate" />
    <path
       inkscape:connector-curvature="0"
       id="rect4243-8-5-9-0"
       d="m -27.841264,105.78143 v 9.74179 0.76674 h 0.764127 2.467043 v -0.76674 h -2.467043 v -9.74179 z"
       style="color:#000000;clip-rule:nonzero;display:inline;overflow:visible;visibility:visible;opacity:1;isolation:auto;mix-blend-mode:normal;color-interpolation:sRGB;color-interpolation-filters:linearRGB;solid-color:#000000;solid-opacity:1;fill:#4a148c;fill-opacity:1;fill-rule:nonzero;stroke:none;stroke-width:0.27186841;stroke-linecap:round;stroke-linejoin:round;stroke-miterlimit:4;stroke-dasharray:none;stroke-dashoffset:0;stroke-opacity:1;color-rendering:auto;image-rendering:auto;shape-rendering:auto;text-rendering:auto;enable-background:accumulate" />
    <path
       inkscape:connector-curvature="0"
       id="path4219-47-5-2-8"
       d="m -31.671506,105.78143 a 5.4551449,5.2542869 0 0 0 -5.455199,5.25442 5.4551449,5.2542869 0 0 0 5.455199,5.25411 5.4551449,5.2542869 0 0 0 0.936485,-0.0836 v -0.76761 a 5.0071387,4.381644 0 0 1 -0.464351,0.0246 5.0071387,4.381644 0 0 1 -5.007003,-4.3818 5.0071387,4.381644 0 0 1 5.007003,-4.38151 5.0071387,4.381644 0 0 1 0.464351,0.0205 v -0.85353 a 5.4551449,5.2542869 0 0 0 -0.936485,-0.0856 z"
       style="color:#000000;clip-rule:nonzero;display:inline;overflow:visible;visibility:visible;opacity:1;isolation:auto;mix-blend-mode:normal;color-interpolation:sRGB;color-interpolation-filters:linearRGB;solid-color:#000000;solid-opacity:1;fill:#4a148c;fill-opacity:1;fill-rule:nonzero;stroke:none;stroke-width:0.27186841;stroke-linecap:round;stroke-linejoin:round;stroke-miterlimit:4;stroke-dasharray:none;stroke-dashoffset:0;stroke-opacity:1;color-rendering:auto;image-rendering:auto;shape-rendering:auto;text-rendering:auto;enable-background:accumulate" />
    <path
       sodipodi:nodetypes="ccccc"
       inkscape:connector-curvature="0"
       id="rect4243-8-4-5-1-0"
       d="m -4.4995156,105.78143 v 10.50853 h 0.7641193 v -10.50853 z"
       style="color:#000000;clip-rule:nonzero;display:inline;overflow:visible;visibility:visible;opacity:1;isolation:auto;mix-blend-mode:normal;color-interpolation:sRGB;color-interpolation-filters:linearRGB;solid-color:#000000;solid-opacity:1;fill:#4a148c;fill-opacity:1;fill-rule:nonzero;stroke:none;stroke-width:0.27186841;stroke-linecap:round;stroke-linejoin:round;stroke-miterlimit:4;stroke-dasharray:none;stroke-dashoffset:0;stroke-opacity:1;color-rendering:auto;image-rendering:auto;shape-rendering:auto;text-rendering:auto;enable-background:accumulate" />
    <path
       sodipodi:nodetypes="caaaaaaaaccaaaaaaaacc"
       inkscape:connector-curvature="0"
       id="rect4243-8-4-9-5-3-3"
       d="m -7.8779848,105.81343 c 0,0 -2.2620482,-0.19009 -3.1786532,0.35626 -0.673534,0.40147 -1.187682,1.16317 -1.346375,1.93298 -0.09737,0.4724 0.0758,0.9856 0.289437,1.41775 0.166395,0.33655 0.4566,0.60234 0.739781,0.8481 0.577371,0.5011 1.32215,0.77556 1.9227245,1.24843 0.3895369,0.30668 0.8741262,0.5712 1.0804025,1.02286 0.2157587,0.47238 0.2606632,1.07423 0.069889,1.55731 -0.2047572,0.51845 -0.6806563,0.95636 -1.1956121,1.16611 -0.8676499,0.3534 -2.8091759,0 -2.8091759,0 v 0.78818 c 0,0 1.925812,0.31176 2.8091759,0 0.7411688,-0.26156 1.4613554,-0.78865 1.8381185,-1.48046 0.2976779,-0.54665 0.315001,-1.24685 0.1966878,-1.85836 -0.081699,-0.42218 -0.3169041,-0.8198 -0.604389,-1.13875 -0.6968116,-0.7731 -1.7785209,-1.08834 -2.5901422,-1.73891 -0.310076,-0.24855 -0.697571,-0.46026 -0.864284,-0.82163 -0.151604,-0.32862 -0.163332,-0.73803 -0.05921,-1.08475 0.131112,-0.43653 0.419495,-0.87108 0.814145,-1.09699 0.8407541,-0.48126 2.8874766,-0.30872 2.8874766,-0.30872 z"
       style="color:#000000;clip-rule:nonzero;display:inline;overflow:visible;visibility:visible;opacity:1;isolation:auto;mix-blend-mode:normal;color-interpolation:sRGB;color-interpolation-filters:linearRGB;solid-color:#000000;solid-opacity:1;fill:#4a148c;fill-opacity:1;fill-rule:nonzero;stroke:none;stroke-width:0.27186841;stroke-linecap:round;stroke-linejoin:round;stroke-miterlimit:4;stroke-dasharray:none;stroke-dashoffset:0;stroke-opacity:1;color-rendering:auto;image-rendering:auto;shape-rendering:auto;text-rendering:auto;enable-background:accumulate" />
    <path
       inkscape:connector-curvature="0"
       d="m -20.532445,110.89656 h 5.207808 v 0.76688 h -5.207808 z m 4.271364,-5.11513 a 5.4551449,5.2542869 0 0 0 -5.455223,5.25442 5.4551449,5.2542869 0 0 0 5.455223,5.25411 5.4551449,5.2542869 0 0 0 0.936476,-0.0836 v -0.76761 a 5.0071387,4.381644 0 0 1 -0.46435,0.0246 5.0071387,4.381644 0 0 1 -5.007004,-4.3818 5.0071387,4.381644 0 0 1 5.007004,-4.38151 5.0071387,4.381644 0 0 1 0.46435,0.0205 v -0.85353 a 5.4551449,5.2542869 0 0 0 -0.936476,-0.0856 z"
       style="color:#000000;clip-rule:nonzero;display:inline;overflow:visible;visibility:visible;opacity:1;isolation:auto;mix-blend-mode:normal;color-interpolation:sRGB;color-interpolation-filters:linearRGB;solid-color:#000000;solid-opacity:1;fill:#4a148c;fill-opacity:1;fill-rule:nonzero;stroke:none;stroke-width:0.27186841;stroke-linecap:round;stroke-linejoin:round;stroke-miterlimit:4;stroke-dasharray:none;stroke-dashoffset:0;stroke-opacity:1;color-rendering:auto;image-rendering:auto;shape-rendering:auto;text-rendering:auto;enable-background:accumulate"
       id="rect4243-0-4-1-2" />
    <path
       inkscape:connector-curvature="0"
       id="path5253"
       style="font-style:normal;font-variant:normal;font-weight:normal;font-stretch:normal;font-size:14.90137482px;line-height:125%;font-family:'Bubbler One';-inkscape-font-specification:'Bubbler One, Normal';text-align:start;letter-spacing:0px;word-spacing:0px;writing-mode:lr-tb;text-anchor:start;fill:#4caf50;fill-opacity:1;stroke:none;stroke-width:0.28222224px;stroke-linecap:butt;stroke-linejoin:miter;stroke-opacity:1"
       d="m 6.3261587,111.29693 0.1487589,0.0149 q 4.0759924,-0.0597 4.0759924,-2.46295 0,-0.89561 -0.8181738,-1.59718 -0.4462766,-0.38809 -1.3239537,-0.62693 -0.8628012,-0.23883 -2.0826238,-0.25375 z m 0,0.55231 v 4.41836 H 5.7757511 v -10.46376 q 2.6032797,0.0149 3.9569851,0.80604 1.3685818,0.7762 1.3685818,2.19427 0,1.67181 -1.3090783,2.32859 -0.4462766,0.23883 -0.7884219,0.35824 -0.3421453,0.11942 -0.9223047,0.20898 -0.7289183,0.0896 -1.7553544,0.14928 z" />
    <path
       inkscape:connector-curvature="0"
       id="path5255"
       style="font-style:normal;font-variant:normal;font-weight:normal;font-stretch:normal;font-size:14.90137482px;line-height:125%;font-family:'Bubbler One';-inkscape-font-specification:'Bubbler One, Normal';text-align:start;letter-spacing:0px;word-spacing:0px;writing-mode:lr-tb;text-anchor:start;fill:#4caf50;fill-opacity:1;stroke:none;stroke-width:0.28222224px;stroke-linecap:butt;stroke-linejoin:miter;stroke-opacity:1"
       d="m 13.124902,111.29693 0.148759,0.0149 q 4.075992,-0.0597 4.075992,-2.46295 0,-0.89561 -0.818173,-1.59718 -0.446276,-0.38809 -1.323953,-0.62693 -0.862802,-0.23883 -2.082625,-0.25375 z m 0,0.55231 v 4.41836 h -0.550408 v -10.46376 q 2.60328,0.0149 3.956986,0.80604 1.368581,0.7762 1.368581,2.19427 0,1.67181 -1.309078,2.32859 -0.446276,0.23883 -0.788421,0.35824 -0.342146,0.11942 -0.922306,0.20898 -0.728918,0.0896 -1.755354,0.14928 z" />
    <path
       style="fill:#d9b142;fill-opacity:1;stroke-width:0.28222224"
       d="m 1.0226989,105.78142 c -0.31604001,2.8e-4 -0.64089201,0.0254 -0.85525001,0.0729 -1.62768199,0.36113 -2.83211599,1.57886 -3.19029499,3.22549 -0.0504,0.2317 -0.05823,0.34408 -0.05776,0.83015 5.29e-4,0.48418 0.0087,0.60026 0.05949,0.83673 0.167936,0.78218 0.549153,1.54116 1.162254,2.31394 0.409389,0.51599 1.23131199,1.44862 2.35219599,2.66898 0.283128,0.30827 0.53836101,0.56044 0.54120001,0.56044 0.01847,0 2.046443,-2.43637 2.518952,-3.02009 0.924674,-1.14227 1.380546,-1.99241 1.53547,-2.8632 0.04833,-0.27167 0.0408,-0.86865 -0.01503,-1.18974 -0.305635,-1.75836 -1.635978,-3.09044 -3.385869,-3.39039 -0.179086,-0.0307 -0.41955,-0.0454 -0.665358,-0.0452 z m -0.00423,1.05266 c 0.246132,0 0.445649,0.19919 0.445643,0.44486 -1.29e-4,0.003 -2.64e-4,0.007 -5.29e-4,0.01 h 0.0019 v 1.61265 h 2.060409 c 0.0064,-2.9e-4 0.01273,0 0.01908,0 0.263475,0 0.477068,0.21319 0.477097,0.47616 0,0.26304 -0.213604,0.47625 -0.477097,0.47625 -0.0041,-1.6e-4 -0.0082,-2.9e-4 -0.01236,0 v 0 h -2.067126 c 0,0 0.07888,1.70101 0.03393,2.54985 -0.06898,1.30263 -0.465037,3.88544 -0.465037,3.88544 0,0 -0.39580301,-2.66497 -0.47132601,-4.00815 -0.04542,-0.80777 0.01146,-2.42714 0.01146,-2.42714 H -1.4926661 v 0 c -0.0067,3e-4 -0.01349,0 -0.02027,0 -0.263578,0 -0.477253,-0.2133 -0.47725,-0.47639 2.4e-5,-0.26308 0.213691,-0.47633 0.47725,-0.47633 0.0067,2e-4 0.01352,0 0.02027,0 v -2.9e-4 h 2.06712599 v -1.5849 c -0.0011,-0.0124 -0.0016,-0.0251 -0.0019,-0.0377 -8e-6,-0.24571 0.199544,-0.4449 0.44569301,-0.44487 z"
       id="path5449-4-3-0-3"
       inkscape:connector-curvature="0"
       sodipodi:nodetypes="sssssssssssssccccccccccccacacccccccccccsc" />
  </g>
</svg>
