<?xml version="1.0" encoding="UTF-8" standalone="no"?>
<!-- Created with Inkscape (http://www.inkscape.org/) -->

<svg
   xmlns:dc="http://purl.org/dc/elements/1.1/"
   xmlns:cc="http://creativecommons.org/ns#"
   xmlns:rdf="http://www.w3.org/1999/02/22-rdf-syntax-ns#"
   xmlns:svg="http://www.w3.org/2000/svg"
   xmlns="http://www.w3.org/2000/svg"
   xmlns:sodipodi="http://sodipodi.sourceforge.net/DTD/sodipodi-0.dtd"
   xmlns:inkscape="http://www.inkscape.org/namespaces/inkscape"
   width="332.21582mm"
   height="311.82669mm"
   viewBox="0 0 1177.1426 1104.8978"
   id="svg4611"
   version="1.1"
   inkscape:version="0.92pre2 r"
   sodipodi:docname="ecclesiapp_logo.svg"
   inkscape:export-filename="/home/sam/Documentos/mono/ecclisi/diseño/ecclesiapp_logo.png"
   inkscape:export-xdpi="90"
   inkscape:export-ydpi="90">
  <defs
     id="defs4613" />
  <sodipodi:namedview
     id="base"
     pagecolor="#ffffff"
     bordercolor="#666666"
     borderopacity="1.0"
     inkscape:pageopacity="0.0"
     inkscape:pageshadow="2"
     inkscape:zoom="0.24748737"
     inkscape:cx="47.197907"
     inkscape:cy="629.43897"
     inkscape:document-units="px"
     inkscape:current-layer="layer1"
     showgrid="false"
     fit-margin-top="0"
     fit-margin-left="0"
     fit-margin-right="0"
     fit-margin-bottom="0"
     inkscape:window-width="1366"
     inkscape:window-height="707"
     inkscape:window-x="0"
     inkscape:window-y="0"
     inkscape:window-maximized="1" />
  <metadata
     id="metadata4616">
    <rdf:RDF>
      <cc:Work
         rdf:about="">
        <dc:format>image/svg+xml</dc:format>
        <dc:type
           rdf:resource="http://purl.org/dc/dcmitype/StillImage" />
        <dc:title />
      </cc:Work>
    </rdf:RDF>
  </metadata>
  <g
     inkscape:label="Capa 1"
     inkscape:groupmode="layer"
     id="layer1"
     transform="translate(-129.61047,-314.65335)">
    <path
       id="path5559"
       d="m 1203.7158,596.95466 c -75.2464,50.39828 -8.3892,60.50321 -13.6471,90.68308 -28.4748,163.46344 -197.43963,354.88356 -96.9169,489.50256 -82.4317,38.0763 -142.48407,-42.786 -215.83225,-35.3983 -18.28833,1.8421 -28.62927,17.9125 -47.06476,18.987 -52.59536,3.0657 -97.23196,-48.802 -147.18492,-37.764 -11.09945,2.4522 -17.82348,19.5556 -17.82348,19.5556 C 542.28447,1031.432 363.46888,961.12629 245.55601,889.27939 612.90839,841.41854 610.72228,676.91404 835.68512,622.44036 951.17929,594.47428 1136.4551,573.32567 1203.7158,596.95466 Z"
       class="fil2 str1"
       inkscape:connector-curvature="0"
       style="clip-rule:evenodd;display:inline;fill:none;fill-opacity:1;fill-rule:evenodd;stroke:#2196f3;stroke-width:30.25178146;stroke-miterlimit:4;stroke-dasharray:none;stroke-opacity:1;image-rendering:optimizeQuality;shape-rendering:geometricPrecision;text-rendering:geometricPrecision"
       sodipodi:nodetypes="cacaaaccac" />
    <path
       sodipodi:nodetypes="sssssssssssss"
       inkscape:connector-curvature="0"
       id="path5449-8"
       d="m 719.24301,397.3939 c -16.02233,0 -32.49144,1.27912 -43.35895,3.68204 -82.51908,18.24554 -143.58062,79.77107 -161.73937,162.96492 -2.55533,11.70688 -2.9524,17.38383 -2.92863,41.9426 0.0245,24.46338 0.44243,30.32783 3.01635,42.27521 8.51386,39.51887 27.84057,77.86624 58.9232,116.90943 20.7548,26.07063 62.29426,73.18961 119.12,134.84802 14.35389,15.57439 27.45304,28.31581 27.59693,28.31581 0.93529,0 103.71999,-123.0963 127.67467,-152.58729 46.87847,-57.71223 69.99019,-100.66409 77.84423,-144.66028 2.45062,-13.72583 2.06827,-43.88817 -0.76103,-60.11027 -15.49572,-88.83941 -82.94072,-156.14256 -171.65544,-171.29669 -9.07936,-1.551 -21.27008,-2.29532 -33.73196,-2.2835 z"
       style="display:inline;fill:#f9f9f9;fill-opacity:1" />
    <path
       style="display:inline;fill:#d9b142;fill-opacity:1"
       d="m 719.24319,397.3935 c -16.02236,0 -32.49148,1.2832 -43.35907,3.68164 -82.51884,18.24594 -143.58054,79.77106 -161.73925,162.96533 -2.55497,11.70688 -2.95199,17.38463 -2.92835,41.943 0.0408,24.46297 0.44227,30.32783 3.01599,42.27521 8.51399,39.51887 27.84094,77.86584 58.92332,116.91024 20.75485,26.06982 62.42433,73.19002 119.24999,134.84762 14.35357,15.5752 27.2935,28.31581 27.43739,28.31581 0.93549,0 103.74901,-123.09549 127.70369,-152.5877 46.87847,-57.71223 69.98978,-100.6645 77.84423,-144.66109 2.45022,-13.72543 2.06827,-43.88776 -0.76102,-60.11027 -15.49572,-88.83941 -82.94032,-156.14216 -171.65545,-171.2967 -9.07854,-1.55141 -21.26967,-2.29572 -33.73147,-2.28309 z m -0.21604,53.18479 c 12.4781,0 22.59282,10.06417 22.59282,22.47664 0,0.1712 0,0.3424 -0.0408,0.49893 l 0.10191,0 0,81.47777 104.45705,0 c 0.32202,0 0.64526,0 0.96728,0 13.35775,0 24.18621,10.77139 24.18743,24.0578 0,13.28968 -10.82886,24.06229 -24.18743,24.06229 -0.21196,0 -0.41781,0 -0.62651,0 l 0,0 -104.79782,0 c 0,0 3.99917,85.94204 1.71975,128.82909 -3.49698,65.81411 -23.57558,196.30874 -23.57558,196.30874 0,0 -20.06679,-134.64544 -23.89558,-202.50866 -2.30224,-40.81226 0.58087,-122.62917 0.58087,-122.62917 l -104.79738,0 0,0 c -0.33832,0 -0.68399,0 -1.0272,0 -13.36264,0 -24.19558,-10.7771 -24.19518,-24.06922 10e-4,-13.29252 10.83335,-24.06636 24.19518,-24.06636 0.33832,0 0.68562,0 1.0272,0 l 0,0 104.79738,0 0,-80.07637 c -0.0571,-0.62733 -0.0856,-1.26892 -0.0978,-1.90481 -4.1e-4,-12.41411 10.11634,-22.47787 22.59566,-22.47664 z"
       id="path5449-4-3-0-6"
       inkscape:connector-curvature="0"
       sodipodi:nodetypes="sssssssssssssccccccccccccacacccccccccccsc" />
    <g
       style="display:inline;fill:#4a148c;fill-opacity:1"
       id="g5844"
       transform="matrix(1.1796426,0,0,1.1796425,2986.2517,1104.8629)">
      <path
         id="rect4243"
         style="color:#000000;clip-rule:nonzero;display:inline;overflow:visible;visibility:visible;opacity:1;isolation:auto;mix-blend-mode:normal;color-interpolation:sRGB;color-interpolation-filters:linearRGB;solid-color:#000000;solid-opacity:1;fill:#4a148c;fill-opacity:1;fill-rule:nonzero;stroke:none;stroke-width:3.32299995;stroke-linecap:round;stroke-linejoin:round;stroke-miterlimit:4;stroke-dasharray:none;stroke-dashoffset:0;stroke-opacity:1;color-rendering:auto;image-rendering:auto;shape-rendering:auto;text-rendering:auto;enable-background:accumulate"
         d="m -2358.7376,130.81534 63.7633,0 0,9.3573 -63.7633,0 z m 52.2974,-62.4144 a 66.79154,64.112369 0 0 0 -66.7922,64.1139 66.79154,64.112369 0 0 0 66.7922,64.1102 66.79154,64.112369 0 0 0 11.4663,-1.0198 l 0,-9.3663 a 61.306255,53.464453 0 0 1 -5.6854,0.2998 61.306255,53.464453 0 0 1 -61.3046,-53.4664 61.306255,53.464453 0 0 1 61.3046,-53.4628 61.306255,53.464453 0 0 1 5.6854,0.2506 l 0,-10.4146 a 66.79154,64.112369 0 0 0 -11.4663,-1.0446 z"
         inkscape:connector-curvature="0" />
      <path
         style="color:#000000;clip-rule:nonzero;display:inline;overflow:visible;visibility:visible;opacity:1;isolation:auto;mix-blend-mode:normal;color-interpolation:sRGB;color-interpolation-filters:linearRGB;solid-color:#000000;solid-opacity:1;fill:#4a148c;fill-opacity:1;fill-rule:nonzero;stroke:none;stroke-width:3.32299995;stroke-linecap:round;stroke-linejoin:round;stroke-miterlimit:4;stroke-dasharray:none;stroke-dashoffset:0;stroke-opacity:1;color-rendering:auto;image-rendering:auto;shape-rendering:auto;text-rendering:auto;enable-background:accumulate"
         d="m -2192.7506,68.40094 a 66.79154,64.112369 0 0 0 -66.7924,64.1139 66.79154,64.112369 0 0 0 66.7924,64.1102 66.79154,64.112369 0 0 0 11.4661,-1.0198 l 0,-9.3663 a 61.306255,53.464453 0 0 1 -5.6854,0.2998 61.306255,53.464453 0 0 1 -61.3046,-53.4664 61.306255,53.464453 0 0 1 61.3046,-53.4628 61.306255,53.464453 0 0 1 5.6854,0.2506 l 0,-10.4146 a 66.79154,64.112369 0 0 0 -11.4661,-1.0446 z"
         id="path4219-4"
         inkscape:connector-curvature="0" />
      <path
         style="color:#000000;clip-rule:nonzero;display:inline;overflow:visible;visibility:visible;opacity:1;isolation:auto;mix-blend-mode:normal;color-interpolation:sRGB;color-interpolation-filters:linearRGB;solid-color:#000000;solid-opacity:1;fill:#4a148c;fill-opacity:1;fill-rule:nonzero;stroke:none;stroke-width:3.32299995;stroke-linecap:round;stroke-linejoin:round;stroke-miterlimit:4;stroke-dasharray:none;stroke-dashoffset:0;stroke-opacity:1;color-rendering:auto;image-rendering:auto;shape-rendering:auto;text-rendering:auto;enable-background:accumulate"
         d="m -2032.1648,68.40094 0,118.8684 0,9.3557 9.3558,0 30.2059,0 0,-9.3557 -30.2059,0 0,-118.8684 -9.3558,0 z"
         id="rect4243-8"
         inkscape:connector-curvature="0" />
      <path
         style="color:#000000;clip-rule:nonzero;display:inline;overflow:visible;visibility:visible;opacity:1;isolation:auto;mix-blend-mode:normal;color-interpolation:sRGB;color-interpolation-filters:linearRGB;solid-color:#000000;solid-opacity:1;fill:#4a148c;fill-opacity:1;fill-rule:nonzero;stroke:none;stroke-width:3.32299995;stroke-linecap:round;stroke-linejoin:round;stroke-miterlimit:4;stroke-dasharray:none;stroke-dashoffset:0;stroke-opacity:1;color-rendering:auto;image-rendering:auto;shape-rendering:auto;text-rendering:auto;enable-background:accumulate"
         d="m -2079.0614,68.40094 a 66.79154,64.112369 0 0 0 -66.7922,64.1139 66.79154,64.112369 0 0 0 66.7922,64.1102 66.79154,64.112369 0 0 0 11.4661,-1.0198 l 0,-9.3663 a 61.306255,53.464453 0 0 1 -5.6854,0.2998 61.306255,53.464453 0 0 1 -61.3046,-53.4664 61.306255,53.464453 0 0 1 61.3046,-53.4628 61.306255,53.464453 0 0 1 5.6854,0.2506 l 0,-10.4146 a 66.79154,64.112369 0 0 0 -11.4661,-1.0446 z"
         id="path4219-47"
         inkscape:connector-curvature="0" />
      <path
         style="color:#000000;clip-rule:nonzero;display:inline;overflow:visible;visibility:visible;opacity:1;isolation:auto;mix-blend-mode:normal;color-interpolation:sRGB;color-interpolation-filters:linearRGB;solid-color:#000000;solid-opacity:1;fill:#4a148c;fill-opacity:1;fill-rule:nonzero;stroke:none;stroke-width:3.32299995;stroke-linecap:round;stroke-linejoin:round;stroke-miterlimit:4;stroke-dasharray:none;stroke-dashoffset:0;stroke-opacity:1;color-rendering:auto;image-rendering:auto;shape-rendering:auto;text-rendering:auto;enable-background:accumulate"
         d="m -1746.3738,68.40094 0,128.2241 9.3557,0 0,-128.2241 z"
         id="rect4243-8-4"
         inkscape:connector-curvature="0"
         sodipodi:nodetypes="ccccc" />
      <path
         style="color:#000000;clip-rule:nonzero;display:inline;overflow:visible;visibility:visible;opacity:1;isolation:auto;mix-blend-mode:normal;color-interpolation:sRGB;color-interpolation-filters:linearRGB;solid-color:#000000;solid-opacity:1;fill:#4a148c;fill-opacity:1;fill-rule:nonzero;stroke:none;stroke-width:3.32299995;stroke-linecap:round;stroke-linejoin:round;stroke-miterlimit:4;stroke-dasharray:none;stroke-dashoffset:0;stroke-opacity:1;color-rendering:auto;image-rendering:auto;shape-rendering:auto;text-rendering:auto;enable-background:accumulate"
         d="m -1787.739,68.79134 c 0,0 -27.696,-2.3194 -38.9187,4.3471 -8.2466,4.8987 -14.5417,14.1929 -16.4847,23.586 -1.1922,5.7642 0.9281,12.0262 3.5438,17.2993 2.0373,4.1066 5.5905,7.3497 9.0577,10.3484 7.0692,6.1144 16.1881,9.4634 23.5414,15.2333 4.7694,3.7421 10.7026,6.9697 13.2282,12.4808 2.6417,5.764 3.1915,13.1077 0.8557,19.0022 -2.507,6.3261 -8.3338,11.6694 -14.6388,14.2288 -10.6233,4.3121 -34.3949,0 -34.3949,0 l 0,9.6173 c 0,0 23.5792,3.804 34.3949,0 9.0747,-3.1915 17.8925,-9.6231 22.5055,-18.0645 3.6447,-6.6702 3.8568,-15.2139 2.4082,-22.6755 -1.0003,-5.1514 -3.8801,-10.0032 -7.4,-13.895 -8.5316,-9.4332 -21.7758,-13.2798 -31.7131,-21.218 -3.7965,-3.0328 -8.5409,-5.616 -10.5821,-10.0255 -1.8562,-4.0098 -1.9998,-9.0053 -0.7249,-13.236 1.6053,-5.3265 5.1362,-10.6288 9.9682,-13.3853 10.294,-5.8724 35.3536,-3.767 35.3536,-3.767 z"
         id="rect4243-8-4-9"
         inkscape:connector-curvature="0"
         sodipodi:nodetypes="caaaaaaaaccaaaaaaaacc" />
      <path
         id="rect4243-0"
         style="color:#000000;clip-rule:nonzero;display:inline;overflow:visible;visibility:visible;opacity:1;isolation:auto;mix-blend-mode:normal;color-interpolation:sRGB;color-interpolation-filters:linearRGB;solid-color:#000000;solid-opacity:1;fill:#4a148c;fill-opacity:1;fill-rule:nonzero;stroke:none;stroke-width:3.32299995;stroke-linecap:round;stroke-linejoin:round;stroke-miterlimit:4;stroke-dasharray:none;stroke-dashoffset:0;stroke-opacity:1;color-rendering:auto;image-rendering:auto;shape-rendering:auto;text-rendering:auto;enable-background:accumulate"
         d="m -1942.6773,130.81534 63.7632,0 0,9.3573 -63.7632,0 z m 52.2976,-62.4144 a 66.79154,64.112369 0 0 0 -66.7925,64.1139 66.79154,64.112369 0 0 0 66.7925,64.1102 66.79154,64.112369 0 0 0 11.466,-1.0198 l 0,-9.3663 a 61.306255,53.464453 0 0 1 -5.6854,0.2998 61.306255,53.464453 0 0 1 -61.3046,-53.4664 61.306255,53.464453 0 0 1 61.3046,-53.4628 61.306255,53.464453 0 0 1 5.6854,0.2506 l 0,-10.4146 a 66.79154,64.112369 0 0 0 -11.466,-1.0446 z"
         inkscape:connector-curvature="0" />
    </g>
    <path
       inkscape:connector-curvature="0"
       id="path4480"
       style="font-style:normal;font-variant:normal;font-weight:normal;font-stretch:normal;font-size:214.85639954px;line-height:125%;font-family:'Bubbler One';-inkscape-font-specification:'Bubbler One, Normal';text-align:start;letter-spacing:0px;word-spacing:0px;writing-mode:lr-tb;text-anchor:start;fill:#4caf50;fill-opacity:1;stroke:none;stroke-width:1px;stroke-linecap:butt;stroke-linejoin:miter;stroke-opacity:1"
       d="m 1082.5129,1264.9409 2.1486,0.2148 q 58.8706,-0.8594 58.8706,-35.4513 0,-12.8914 -11.8171,-22.9896 -6.4457,-5.5863 -19.1222,-9.024 -12.4617,-3.4377 -30.0799,-3.6526 z m 0,7.9496 v 63.5975 h -7.9497 v -150.6143 q 37.5999,0.2149 57.1518,11.6022 19.7668,11.1726 19.7668,31.5839 0,24.064 -18.9074,33.5176 -6.4456,3.4377 -11.3873,5.1566 -4.9417,1.7188 -13.3211,3.008 -10.528,1.2891 -25.3531,2.1485 z" />
    <path
       inkscape:connector-curvature="0"
       id="path4482"
       style="font-style:normal;font-variant:normal;font-weight:normal;font-stretch:normal;font-size:214.85639954px;line-height:125%;font-family:'Bubbler One';-inkscape-font-specification:'Bubbler One, Normal';text-align:start;letter-spacing:0px;word-spacing:0px;writing-mode:lr-tb;text-anchor:start;fill:#4caf50;fill-opacity:1;stroke:none;stroke-width:1px;stroke-linecap:butt;stroke-linejoin:miter;stroke-opacity:1"
       d="m 1180.709,1264.9409 2.1486,0.2148 q 58.8706,-0.8594 58.8706,-35.4513 0,-12.8914 -11.8171,-22.9896 -6.4457,-5.5863 -19.1222,-9.024 -12.4617,-3.4377 -30.0799,-3.6526 z m 0,7.9496 v 63.5975 h -7.9497 v -150.6143 q 37.5999,0.2149 57.1518,11.6022 19.7668,11.1726 19.7668,31.5839 0,24.064 -18.9074,33.5176 -6.4457,3.4377 -11.3874,5.1566 -4.9417,1.7188 -13.3211,3.008 -10.5279,1.2891 -25.353,2.1485 z" />
    <path
       style="display:inline;fill:#d9b142;fill-opacity:1"
       d="m 1005.9135,1185.5507 c -4.5646,0 -9.25673,0.3669 -12.35261,1.0492 -23.50955,5.198 -40.9056,22.7257 -46.07872,46.4273 -0.72802,3.3351 -0.84093,4.9526 -0.8344,11.9494 0,6.9691 0.12636,8.6399 0.85926,12.0436 2.42575,11.2589 7.93149,22.1835 16.78706,33.3067 5.91296,7.4273 17.78411,20.8514 33.9736,38.4171 4.08931,4.4373 7.77581,8.0672 7.81661,8.0672 0.2649,0 29.5578,-35.0693 36.3822,-43.4712 13.3557,-16.4418 19.94,-28.6786 22.1774,-41.2129 0.6983,-3.9103 0.5895,-12.503 -0.216,-17.125 -4.4145,-25.3096 -23.629,-44.4833 -48.9035,-48.8008 -2.5864,-0.4419 -6.0597,-0.6543 -9.6101,-0.6506 z m -0.061,15.1521 c 3.5548,0 6.4363,2.8672 6.4363,6.4033 0,0.049 0,0.098 0,0.1427 l 0.041,0 0,23.2124 29.7592,0 c 0.094,0 0.1834,0 0.2772,0 3.8055,0 6.8904,3.0686 6.8908,6.8537 0,3.786 -3.0849,6.8554 -6.8908,6.8554 -0.061,0 -0.1182,0 -0.1794,0 l 0,0 -29.8562,0 c 0,0 1.1393,24.4842 0.49,36.7022 -0.9962,18.7502 -6.7168,55.9269 -6.7168,55.9269 0,0 -5.7169,-38.3596 -6.80771,-57.6931 -0.65586,-11.627 0.16713,-34.936 0.16713,-34.936 l -29.85622,0 0,0 c -0.0978,0 -0.19566,0 -0.29349,0 -3.80677,0 -6.89287,-3.0706 -6.89287,-6.8574 4.1e-4,-3.7868 3.0861,-6.8562 6.89287,-6.8562 0.0978,0 0.19566,0 0.29349,0 l 0,0 29.85622,0 0,-22.8129 c 0,-0.1793 -0.0408,-0.3628 -0.0408,-0.5425 0,-3.537 2.88188,-6.4042 6.43718,-6.4038 z"
       id="path5449-4-3-0-7"
       inkscape:connector-curvature="0"
       sodipodi:nodetypes="sssssssssssssccccccccccccacacccccccccccsc" />
  </g>
</svg>
