<?xml version="1.0" encoding="UTF-8" standalone="no"?>
<!-- Created with Inkscape (http://www.inkscape.org/) -->

<svg
   xmlns:dc="http://purl.org/dc/elements/1.1/"
   xmlns:cc="http://creativecommons.org/ns#"
   xmlns:rdf="http://www.w3.org/1999/02/22-rdf-syntax-ns#"
   xmlns:svg="http://www.w3.org/2000/svg"
   xmlns="http://www.w3.org/2000/svg"
   xmlns:sodipodi="http://sodipodi.sourceforge.net/DTD/sodipodi-0.dtd"
   xmlns:inkscape="http://www.inkscape.org/namespaces/inkscape"
   width="186.48451mm"
   height="238.125mm"
   viewBox="0 0 186.48452 238.125"
   version="1.1"
   id="svg4570"
   inkscape:version="0.92pre3 r"
   sodipodi:docname="ecclesi_marcador.svg"
   inkscape:export-filename="/home/sam/Documentos/mono/ecclisi/ecclesiapp/app/static/img/favicon_eclessi.png"
   inkscape:export-xdpi="96"
   inkscape:export-ydpi="96">
  <defs
     id="defs4564" />
  <sodipodi:namedview
     id="base"
     pagecolor="#ffffff"
     bordercolor="#666666"
     borderopacity="1.0"
     inkscape:pageopacity="0.0"
     inkscape:pageshadow="2"
     inkscape:zoom="0.35"
     inkscape:cx="-576.81249"
     inkscape:cy="471.73888"
     inkscape:document-units="mm"
     inkscape:current-layer="layer1"
     showgrid="false"
     fit-margin-top="0"
     fit-margin-left="0"
     fit-margin-right="0"
     fit-margin-bottom="0"
     inkscape:window-width="1366"
     inkscape:window-height="707"
     inkscape:window-x="0"
     inkscape:window-y="0"
     inkscape:window-maximized="1" />
  <metadata
     id="metadata4567">
    <rdf:RDF>
      <cc:Work
         rdf:about="">
        <dc:format>image/svg+xml</dc:format>
        <dc:type
           rdf:resource="http://purl.org/dc/dcmitype/StillImage" />
        <dc:title />
      </cc:Work>
    </rdf:RDF>
  </metadata>
  <g
     inkscape:label="Capa 1"
     inkscape:groupmode="layer"
     id="layer1"
     transform="translate(-47.159613,24.95361)">
    <path
       style="display:inline;fill:#d9b142;fill-opacity:1;stroke-width:0.44849789"
       d="m 140.45957,-24.953539 c -7.186,0 -14.57237,0.575513 -19.44646,1.651208 -37.009524,8.183265 -64.395565,35.777151 -72.539708,73.089588 -1.145898,5.250523 -1.323961,7.79697 -1.313358,18.81135 0.01831,10.971599 0.198356,13.60197 1.352664,18.960351 3.818508,17.724122 12.486602,34.922662 26.426982,52.433982 9.308507,11.69227 27.99718,32.82558 53.48337,60.47887 6.43754,6.98545 12.24108,12.69958 12.3056,12.69958 0.41957,0 46.53122,-55.20806 57.27483,-68.43526 21.0249,-25.8838 31.39027,-45.147808 34.91297,-64.880192 1.09892,-6.155823 0.92761,-19.683564 -0.34131,-26.95932 -6.9498,-39.844277 -37.19855,-70.029417 -76.98711,-76.826196 -4.07169,-0.695803 -9.53939,-1.029625 -15.12847,-1.023961 z m -0.0969,23.8532658 c 5.59639,0 10.13282,4.5137579 10.13282,10.0807242 0,0.076788 0,0.1535611 -0.0183,0.2237688 h 0.0458 V 45.746819 h 46.84876 c 0.14446,0 0.28941,0 0.43383,0 5.99093,0 10.84747,4.830952 10.84803,10.789878 0,5.960388 -4.85673,10.791881 -10.84803,10.791881 -0.095,0 -0.18739,0 -0.281,0 v 0 h -47.00159 c 0,0 1.79362,38.544812 0.77131,57.779562 -1.5684,29.5175 -10.57361,88.04405 -10.57361,88.04405 0,0 -8.99991,-60.38818 -10.71711,-90.82469 -1.03255,-18.30421 0.26052,-54.998922 0.26052,-54.998922 H 83.262612 v 0 c -0.151733,0 -0.306767,0 -0.460695,0 -5.993116,0 -10.851667,-4.833511 -10.851487,-10.794996 4.62e-4,-5.961659 4.858734,-10.793708 10.851487,-10.793708 0.151733,0 0.307498,0 0.460695,0 v 0 H 130.26402 V 9.8257981 c -0.0256,-0.281357 -0.0384,-0.5691072 -0.0439,-0.8543036 -1.8e-4,-5.5677021 4.53716,-10.0812756 10.1341,-10.0807242 z"
       id="path5449-4-3-0-6"
       inkscape:connector-curvature="0"
       sodipodi:nodetypes="sssssssssssssccccccccccccacacccccccccccsc" />
  </g>
</svg>
